<?xml version="1.0" encoding="UTF-8"?>
<svg xmlns="http://www.w3.org/2000/svg" version="1.1" viewBox="0 310 540 145">
  <defs>
    <style>
      .st0 {
        fill: #e35328;
      }
    </style>
  </defs>
  <g>
    <path class="st0" d="M309.9,384.88c-2.2-8.67,4.37-17.45,10.55-23.69,3.53-3.57,7.26-6.54,11.65-8.97,2.54-1.41,4.96-2.93,7.88-3.26,4.68-.54,9.6.94,11.95,5.1,1.01,1.8-.49,3.68-1.55,4.72-1.33,1.31-3.69,1.74-5.33.65-2.13-1.42-4.27-1.97-6.78-.91-2.73,1.16-5.19,2.88-7.51,4.82-4.68,3.91-8.65,8.24-11.38,13.8-.44.91-.35,2.27.05,3.61l8.52-6.65,6.47-5.16c3.51-2.8,8.48-5.56,11.44-3.23s1.38,5.39,2.25,9.61c.42,2.06,2.23,3.09,4.24,2.58,3.48-.88,7.31-1.64,10.45-3.5l8.54-6.43-3.67-5.93c-2.82-.26-3.93-2.4-3.81-4.91.1-2.18.61-3.54,2.4-4.88,2.01-1.5,4.89-1.46,6.43.94l5.83,9.13,18.63-13.92c1.75-1.3,3.36-1.51,5.1,0,1.04.9,2.16,2.16,2.17,3.47.02,1.67-.81,3.06-2.11,4.02l-11.15,8.21-7.7,5.79c2.41,3.41,5.05,6.53,8.46,8.83,2.5,1.68,4.96,1.34,7.48.26,2.38-1.02,4.68.82,5.3,2.8.78,2.49-.39,4.72-2.89,5.88-5.54,2.58-12.07,1.19-16.65-2.82l-5.81-5.84-3.12-3.65-13.56,10.63c-1.85,1.45-3.78,3.01-5.23,4.8-.98,1.2-1.37,2.91-2.85,3.85-2.14,1.36-4.82,1.08-6.7-.91-1.39-1.47-1.66-4.34-.2-6.35-5.77-1.03-8.21-4.88-9.12-10.58l-7.26,5.71-5.33,4.41c-2.07,1.72-4.34,2.97-7.07,3.46-3.85.7-8.01-1.54-9.02-5.48Z"/>
    <path class="st0" d="M182.46,375.94c-.08,4.78,8.93,4.64,13.11,3.27l17.74-5.82c1.77-.58,3.28.24,4.36,1.48,1.41,1.61,1.76,4.23-.47,5.8-1.91,1.33-4.64,2.21-7.1,3.14-5.77,2.19-11.48,4.2-17.72,4.72l-7.59-.15c-3.97-.08-7.21-2.13-9.51-5.41l-3.83,1.36c-5.41,1.92-10.82,3.8-16.65,4.23l-7.25-.16c-6.19-.14-12.15-5.85-11.65-13.27.69-10.2,6.97-20.96,14.82-27.09,4.55-3.55,11.57-4.24,15.16-.91,3.75,3.49,3.46,12.07-.52,17.13-4.97,6.33-12.14,10.24-20.17,11.67.24,6.23,12.06,4.04,18.57,1.77l9.46-3.29c.68-4.86,1.88-9.33,4.27-13.55,4.93-8.69,13.46-18.96,23.44-15.13,2.49.96,3.93,2.9,4.53,5.34,3.18,12.82-10.74,22.85-23.01,24.88ZM159.69,355.48c.06-.44-.36-1.41-.74-1.56-3.01-1.13-9.59,6.96-11.16,11.9,4.93-1.27,11.26-5.32,11.9-10.35ZM196.98,355.92c.12-.6-.27-1.87-.74-2.06-2.76-1.1-9.91,7.32-11.32,12.1,5.31-1.75,11.01-4.94,12.06-10.05Z"/>
    <path class="st0" d="M528.5,374.47c3.04-1.15,5.93-2.06,9.06-1.35,1.72.39,2.7,2.47,2.87,3.99.18,1.59-.72,3.92-2.52,4.35-4.49,1.07-8.7,2.27-13,4-5.65,2.27-13.98,4.97-18.5,1.6-1.57-1.17-2.51-3.01-3.73-4.99l-11.17,2.94c-8.42,2.22-14.25-3.16-16.79-11.11l-2.34-7.34c-.93-2.9-8.73,3.72-11.88,7.17l-4.8,5.27c-1.45,1.6-2.84,2.97-5.11,2.97-1.8,0-4.29-1.01-4.98-2.99l-2.43-6.91c-.54-1.55-1.04-3.22-1.98-4.62-.55-.82-2.55.19-3.12.87l-4.99,5.88c-3.39,3.99-6.73,7.7-9.61,12.02-1.22,1.83-3.37,3.05-5.31,2.56-3.05-.77-4.45-3.07-4.45-6v-23.92c-.02-3.07,1.64-5.6,4.78-5.76,3-.15,4.83,2.44,4.77,5.4l-.25,13.38,4.61-5.09c4.43-4.89,9.5-11.77,16.63-9.62,2.15.65,4.02,2.54,5,5.08l2.93,7.54c5.97-5.84,13.14-13.83,20.79-14.7,2.03-.23,4.64.63,5.86,2.32,3.46,4.8,2.81,10.3,6.59,17.06.99,1.77,2.98,2.43,4.93,1.89l11.07-3.12.79-5.17.78-3.82.28-3.71c.15-1.94,2.06-4.65,3.51-5.9,1.71-1.46,4.49-.86,5.95.13,1.9,1.28,2.07,3.14,1.24,4.96-2.32,5.11-4.18,11.25-2.26,16.4l.4,2.74c1.83.52,4,.29,5.86-.41l10.57-4Z"/>
    <path class="st0" d="M135.34,358.46c2.14,1.45,2.56,3.64,1.36,5.8-.54.98-1.6,2.16-2.5,2.47-2.35.81-4.09-2.49-9.91-.14l-6.06,2.44c-3.51,1.42-6.78,3.3-9.62,5.87-3.24,2.93-1.06,9.9-6.53,10.28-1.82.12-3.33-.63-4.37-2.15-9.49,3.33-20.65,2.55-24.91-7.23l-2.78-8.35c-1.01-.35-2.49,0-3.51.64-5.68,3.61-10.94,7.75-15.28,12.91-1.87,2.21-4.18,3.71-7.26,2.7-2.23-.73-3.03-3.26-3.19-5.67l-.28-4.26.08-18.42c.04-8.84,2.51-20.18,7.72-27.52,1.69-2.38,4.31-2.78,7.01-1.38,1.78.92,2.65,3.53,1.28,5.35-5.69,7.56-6.36,17.12-6.92,26.43l-.26,4.29.15,7.04c6.87-5.59,16.5-15.08,24.6-11.5,3.53,1.57,4.91,4.53,5.47,8l1.52,5.35c1.7,5.98,9.77,4.83,15.79,2.3l.15-4.19c.05-1.46.2-2.87.16-4.26-.09-2.92.55-5.81,1.85-8.42h0c.81-1.63,2.99-1.98,4.67-1.74,1.31.18,3.58,1.68,3.39,3.5l-.78,7.27c6.45-4.22,13.23-7.37,20.84-8.86,2.84-.56,5.65-.21,8.09,1.45Z"/>
    <path class="st0" d="M22.62,399.91l-5.48,3.66c-1.61,1.08-3.23,1.74-5.36,1.08-1.29-.4-2.69-2.03-3.1-3.87-.37-1.66.62-3.53,2.08-4.44l8.07-5.07c2.48-1.56,4.56-4.01,5.65-6.68,1.28-3.14.07-6.62-2.21-8.87l-3.53-3.49-4.04-3.65-9.71-8.86c-4.66-4.25-6.34-10.52-3.85-16.29,1.57-3.65,3.87-6.6,6.57-9.35l2.71-2.76,1.35-1.34,2.43-2.26,16.68-14.62c.7-3.23,3.18-5.29,6.55-5.37,1.45.31,3.43,1.19,4.04,2.66,1.41,3.41-1.5,6.62-4.45,9.19l-16.34,14.24-6.31,6.13c-2.27,2.21-4.46,5.01-4.64,8.33-.12,2.21,1.42,4.78,3.06,6.28l10.31,9.49,4.1,3.71,2.47,2.83c6.98,8.01,6.02,17.02-1.58,24.47l-1.99,1.95-3.48,2.9Z"/>
    <path class="st0" d="M305.82,379.78c-4.89,5.08-20.86,8.69-28.87,9.27l-5.9.43-5.17.04c-2.59.02-5.3-.49-7.42-1.88-2.99-1.95-3.91-4.75-3.85-8.06.06-3.54.63-6.62,1.64-10.03,2.41-8.2,4.55-16.23,5.92-24.68l1.73-10.66.82-5.44c.33-2.21.31-4.54,1.2-6.58.67-1.54,2.72-2.18,4.06-2.13,1.71.07,3.33.45,4.22,2.19.66,1.29.35,3.23.17,4.7l-.94,7.73c-1.63,13.46-4.83,26.4-8.56,39.41-.51,1.77-.51,3.79,0,5.43,2.23.9,4.49.82,6.83.63,8.65-.7,19.57-2.6,27.03-6.6,2.25-1.21,4.28-1.61,6.37.13,1.47,1.22,2.68,4.06.72,6.09Z"/>
    <path class="st0" d="M519.85,344.68c-2.73,1.17-5.82-.02-7.48-2.05-1.88-2.3-2.2-5.24-.47-7.71,1.78-2.55,4.52-3.64,7.42-2.86,2.74.74,4.62,2.94,4.85,5.87s-1.28,5.44-4.33,6.75Z"/>
    <!-- Bottom tagline -->
    <path d="M230.93,443.81c-1.66.34,1.42,3.33,6.69,1.58l7.01-2.33c2.81-5.42,7.35-9.67,12.87-12.24,2.63-1.22,5.68-.52,7.5,1.74.45.56.2,2.07-.25,2.54-2.14,2.19-4.22-1.38-7.16.41-3.52,2.15-9.48,7.5-8.6,10.77l8.91-7.03c1.12-.88,3.08-1.3,4.38-.47,1.56.98,0,4.46,1.98,6.13,4.72-.11,7.59-3.67,9.74-1.41l-.35-6.53-4-.27c-.78-.05-1.36-1.86-1.17-2.55.25-.9,1.43-1.93,2.44-1.92l2.65.02,1.66-14.7c.3-2.65,1.34-5.42,2.78-5.77,1.1-.26,2.33.56,2.71,1.36.45.94.14,1.97-.18,3.09-1.43,5.08-1.96,10.33-2.37,15.87l7.53.73c.94.09,1.42,1.94,1.15,2.72-.31.89-1.44,1.57-2.58,1.54l-6.2-.19,1.18,9.73c.14,1.16-.04,2.35-.98,2.83s-2.86.03-3.14-.99l-.77-2.73c-2.62,2.55-6.3,3.43-9.59,3.87s-6.04-1.8-6.22-5.43l-6.18,5.14c-1.23,1.02-2.94,1.83-4.55,1.85-1.96.03-3.26-1.39-3.82-3.22-4.05,1.62-7.92,2.61-12.07,2.24-4.01-.36-6.62-3.45-5.99-7.53.83-5.34,3.77-10.38,8.34-13.34,2.12-1.37,5.42-1.43,6.97.61,1.77,2.33,1.07,5.81-.56,8.03-2.37,3.23-5.84,5.08-9.75,5.88ZM237.52,432.94c-2.19-.19-4.56,3.09-5.67,5.81,5.1-1.19,6.71-5.72,5.67-5.81Z"/>
    <path d="M356.91,442c1.72-.63,3.19.4,3.37,1.65.25,1.67-.65,2.29-2.24,2.84l-6.27,2.19c-2.71.94-5.88.85-7.74-1.46-2.37-2.93-1.78-6.44-2.81-7.81-.17-.23-1.13-.02-1.37.17l-6.14,4.99c-3.72,3.03-3.74,6.01-6.59,5.61-.61-.09-1.8-.95-1.82-1.63l-.18-10.27-2.95,1.54c.6,1.74.44,3.98-.8,5.6-3.73,4.87-9.53,7.2-15.56,5.9-2.03-.44-3.46-2.05-4.1-3.95-6.18,2.32-12.9,5.44-14.78-.9-.82-2.78-.28-5.58.16-8.52.25-1.68.52-3.52,1.92-4.79.45-.41,1.81-.41,2.38-.25.64.17,1.79,1.31,1.63,1.96-2.42,5.26-2.93,11.91.81,10.53l7.9-2.92c.88-3.89,3.21-6.97,6.64-8.89,1.63-.91,3.02-.47,4.69-.12,1.94.41,3.64.54,5.41,1.75h3.43c.83,0,2.24.77,2.75,1.25.55-.87,1.33-1.76,2-2.01s2.77.27,2.83,1.01l.46,6.58,5.65-4.87c1.63-1.41,3.76-2.45,5.87-2.66,2.42-.23,4.14,1.13,4.58,3.33l1.02,5.15c.27,1.37,1.66,2.02,2.9,1.56l6.94-2.56ZM317.6,440.45c-.95-2.01-5.32.57-7.77-2.36-2.46,1.52-4.65,5.49-3.09,8.44,4.72,2.51,12.49-2.63,10.86-6.08Z"/>
    <path d="M184.98,442.74c-.41,6.89,11.4,5.93,18.37,4,1.52-.42,2.88-.09,3.32,1.28.49,1.52-.14,2.94-1.82,3.33-9.91,2.34-24.84,3.04-24.66-8.28.17-10.73,9.48-20.73,18.7-25.95.96-.54,2.58-.51,3.19.43.56.86.41,2.29-.03,3.23-.48,1.03-1.67,1.23-2.82,1.79-3.62,1.77-6.55,4.72-9.15,7.77-3.03,3.54-4.81,7.72-5.09,12.4Z"/>
    <path d="M226.51,437.8c-.55,2.76-3.76.4-6.33,1.34-2.71.99-5.08,2.21-7.45,3.84s-.76,5.29-3.95,5.58c-1.01.09-2.27-.96-2.28-2.2l-.02-8.22c0-2.12.49-3.91,1.94-4.58s3.19.67,3.02,2.33l-.3,2.88c4.73-2.83,11.35-6.21,14.92-3.34.45.36.56,1.76.44,2.37Z"/>
    <path d="M293.64,421.95c1.84-.54,3.62.46,4.08,2.08.52,1.83-.35,3.74-2.16,4.28s-3.67-.27-4.26-2.13c-.53-1.69.41-3.66,2.34-4.23Z"/>
  </g>
</svg>
