<?xml version="1.0" encoding="UTF-8"?>
<svg id="Layer_1" xmlns="http://www.w3.org/2000/svg" xmlns:i="http://ns.adobe.com/AdobeIllustrator/10.0/" version="1.1" viewBox="0 0 400 250">
  <!-- Generator: Adobe Illustrator 30.5.1, SVG Export Plug-In . SVG Version: 2.1.4 Build 3)  -->
  <defs>
    <style>
      .st0 {
        fill: #e35328;
      }

      .st1 {
        fill: #ec501f;
      }
    </style>
  </defs>
  <g>
    <path class="st1" d="M126.91,128.03l-5.87,6.4c-4.84,5.27-8.83,11.15-11.53,17.8-1.85,4.57-2.84,9.13-3.46,14.04l-.08,6.06,1,5.93c1.61,6.28,5.32,11.66,10.87,15,11.85,7.14,29.75,5.04,41.94-1.09,4.22-2.12,8.19-5.52,10.71-9.43,2.69-4.17,4.48-9.45,2.86-13.99-.85-2.39-3.06-4.03-5.67-3.12-4.63,1.63-5.6,4.99-7.67,4.45-.53-.14-1.3-1.14-1.33-1.7-.12-2.14,1.38-3.5,2.79-4.78,3.06-2.78,7.13-3.86,11.26-2.36,3.39,1.23,6.2,4.68,6.73,8.88.93,7.42-1.91,14.5-6.93,20.08-15.75,17.51-52.22,24.46-69.94,7.53-6.27-5.99-10.15-15.4-10.12-23.9l.02-6.49c.03-9.61,6.67-23.74,12.73-31.27l6.56-8.16c4.42-5.49,9.49-10.06,14.82-14.63l6.06-5.19,6.75-5.34c16.24-12.15,33.36-22.75,51.73-31.36l-15-1.19c-14.57,8.15-31.86,16.59-48.56,17.72-3.87.26-7.5.28-11.36-.59,10.89-3.04,21.49-6.52,31.98-10.92,1.46-.61,2.75-1.32,3.94-2.28-3.09-1.49-5.44-2.94-6.37-6.12-.58-1.99.29-4.44,1.34-6.26,2.04-3.53,4.94-6.1,8.14-8.57,8.19-6.32,17.7-10.36,28.08-11.52,3.92-.44,8.34-.44,11.73,1.14,2.91,1.35,3.75,4.64,2.71,7.54-1.54,4.3-4.28,7.57-7.88,10.65,5.75.63,11.5.79,17.31.03,1.48-.19,2.51-1.04,3.51-1.91l6.7-5.74-.08-9.68c-.13-16.15,6.03-34.23,21.23-41.24,8.82-4.06,19.15-3.08,26.4,3.36,5.85,5.2,8.52,12.29,8.88,20.04.31,6.72-1.1,13.01-3.29,19.42-8.27,24.1-24.31,49.63-40.46,69.81l10.84,7.03,6.26,3.46c15.35,8.5,34.61,12.75,52.2,11.23,10.7-.93,20.64-4.01,30.43-8.29,2.2-.96,4.19-2.31,6.57-2.6,1.83-.22,3.17,1.53,3.45,3.05.51,2.73-.83,4.7-3.16,5.81-20.36,9.73-40.87,13.7-63.35,9.18-13.93-2.8-26.92-8.16-38.84-15.74l-6.43-4.09-3.81-2.49-7.41,7.6c-3.07,3.15-6.59,5.81-10.88,7.32-1.36.48-2.97.51-4.42.63-4.47.38-8.29-1.51-10.51-5.63-2.04-3.81-1.82-8.66.46-12.76,4.17-7.5,13.16-11.35,21.69-10.19,3.26.44,6.05,1.44,9.14,2.49,9.56-11.73,17.9-23.97,25.39-37l6.99-13.2c3.72-7.02,6.48-14.17,8.77-21.77l1.71-8.49c1.06-5.27-1.1-13.96-5.15-17.83-7.38-7.06-19.24-4.71-26,3.78-6.89,8.65-8.45,19.71-8.29,31.04,5.3-4.02,13.4-5.19,13.74-.88.19,2.37-2.04,3.19-3.59,4.22l-9.3,6.25,1.96,11.23c.26,1.47-3.63,4.78-6.64,3.27-.7-.35-1.51-1.57-1.71-2.48l-1.33-5.93-5.44,4.75c-5.32,4.64-9.7,10.06-12.98,16.38-1.83,3.53-3.84,10.25-3.1,13.1l1.88,7.28c-2.11.53-4.3-.5-5.83-2.24-4.08-4.64-2.53-14.46-.09-21.21l-8.05,3.88c-20.1,11.14-42.18,26.43-58.38,42.82ZM175.9,61.37l5.31-3.14c1.61-.95,3.16-2.45,4.14-3.9s.17-3.53-1.35-3.81c-4.47-.82-8.72.14-12.81,1.94-5.06,2.23-13.78,8.04-10.96,11.32,2.43,2.82,11.66-.03,15.69-2.42ZM209.78,124.17l6.37-6.18-4.9-.95c-3.32-.64-6.74.39-9.36,2.6s-4.24,6.94-1.86,8.66,7.12-1.59,9.75-4.14Z"/>
    <path class="st1" d="M155.22,127.56c1.49-3.54,4.3-5.29,7.74-6.68l-1.39,2.21c2.35.49,4.87-.44,5.34-3.07l5.86-.02c-2.86,5.7-11.29,9.84-17.55,7.56Z"/>
    <path class="st1" d="M154.77,121.68c-3.36,2.41-5.92,6.75-6.4,5.18l-.43-1.41c1.93-3.18,4.5-5.43,7.79-7.11,5.05-2.54,10.61-4.03,16.41-3.62-6.2,1.13-12.12,3.2-17.37,6.97Z"/>
  </g>
</svg>
